{
	"asset": { "generator": "Khronos glTF Blender I/O v5.0.21", "version": "2.0" },
	"extensionsUsed": ["KHR_texture_basisu", "KHR_lights_punctual", "KHR_environment_map"],
	"extensionsRequired": ["KHR_texture_basisu", "KHR_lights_punctual"],
	"extensions": {
		"KHR_lights_punctual": { "lights": [{ "color": [1, 1, 1], "intensity": 54351.41306588226, "type": "point", "name": "Light" }] },
		"KHR_environment_map": { "environmentMaps": [{ "cubemap": 3, "intensity": 2.043253659377401 }] }
	},
	"scene": 0,
	"scenes": [{ "name": "Scene", "nodes": [0, 1, 2, 3, 4, 5, 6, 7] }],
	"nodes": [
		{ "mesh": 0, "name": "Cube", "translation": [0.06738084554672241, 1.482675552368164, -2.0094311237335205] },
		{ "mesh": 0, "name": "Cube.002", "translation": [0.02527395263314247, -0.7116652727127075, -1.8921583890914917] },
		{ "mesh": 1, "name": "Sphere", "translation": [0.16474267840385437, -0.10722459852695465, 3.247878074645996] },
		{ "mesh": 1, "name": "Sphere.001", "translation": [0.40643298625946045, 0.8540603518486023, 4.852663516998291] },
		{ "mesh": 0, "name": "Cube.001", "translation": [-2.1629176139831543, -1.3294198513031006, -2.744907855987549] },
		{ "mesh": 0, "name": "Cube.003", "translation": [2.0237181186676025, -0.809772253036499, -2.2695541381835938] },
		{
			"extensions": { "KHR_lights_punctual": { "light": 0 } },
			"name": "Light",
			"rotation": [-0.28416627645492554, 0.7269423007965088, 0.34203392267227173, 0.5232754945755005],
			"translation": [3.7914719581604004, 5.376043319702148, -1.4702980518341064]
		},
		{
			"camera": 0,
			"name": "Camera",
			"rotation": [-0.20997299253940582, 0.3857799470424652, 0.09062844514846802, 0.8937962055206299],
			"translation": [7.074118137359619, 4.430490493774414, 6.460946559906006]
		}
	],
	"cameras": [
		{
			"name": "Camera",
			"perspective": { "aspectRatio": 1.7777777777777777, "yfov": 0.39959652046304894, "zfar": 100, "znear": 0.10000000149011612 },
			"type": "perspective"
		}
	],
	"materials": [
		{
			"doubleSided": true,
			"name": "Cube",
			"normalTexture": { "index": 0 },
			"pbrMetallicRoughness": { "baseColorTexture": { "index": 1 }, "metallicRoughnessTexture": { "index": 2 } }
		}
	],
	"meshes": [
		{ "name": "Cube", "primitives": [{ "attributes": { "POSITION": 0, "NORMAL": 1, "TEXCOORD_0": 2 }, "indices": 3, "material": 0 }] },
		{ "name": "Sphere", "primitives": [{ "attributes": { "POSITION": 4, "NORMAL": 5, "TEXCOORD_0": 6 }, "indices": 7 }] }
	],
	"textures": [
		{ "extensions": { "KHR_texture_basisu": { "source": 0 } }, "sampler": 0 },
		{ "extensions": { "KHR_texture_basisu": { "source": 1 } }, "sampler": 0 },
		{ "extensions": { "KHR_texture_basisu": { "source": 2 } }, "sampler": 0 },
		{ "extensions": { "KHR_environment_map": { "source": 3 } }, "name": "environment_cubemap" }
	],
	"images": [
		{ "bufferView": 4, "mimeType": "image/ktx2", "name": "Image" },
		{ "bufferView": 5, "mimeType": "image/ktx2", "name": "Image" },
		{ "bufferView": 6, "mimeType": "image/ktx2", "name": "Image" },
		{ "mimeType": "image/ktx2", "name": "environment_cubemap", "bufferView": 11 }
	],
	"accessors": [
		{
			"bufferView": 0,
			"componentType": 5126,
			"count": 24,
			"max": [1, 0.9999999403953552, 1],
			"min": [-0.9999999403953552, -1, -1],
			"type": "VEC3"
		},
		{ "bufferView": 1, "componentType": 5126, "count": 24, "type": "VEC3" },
		{ "bufferView": 2, "componentType": 5126, "count": 24, "type": "VEC2" },
		{ "bufferView": 3, "componentType": 5123, "count": 36, "type": "SCALAR" },
		{
			"bufferView": 7,
			"componentType": 5126,
			"count": 1984,
			"max": [0.9999997019767761, 1, 0.9999993443489075],
			"min": [-0.9999990463256836, -1, -1],
			"type": "VEC3"
		},
		{ "bufferView": 8, "componentType": 5126, "count": 1984, "type": "VEC3" },
		{ "bufferView": 9, "componentType": 5126, "count": 1984, "type": "VEC2" },
		{ "bufferView": 10, "componentType": 5123, "count": 2880, "type": "SCALAR" }
	],
	"bufferViews": [
		{ "buffer": 0, "byteLength": 288, "byteOffset": 0, "target": 34962 },
		{ "buffer": 0, "byteLength": 288, "byteOffset": 288, "target": 34962 },
		{ "buffer": 0, "byteLength": 192, "byteOffset": 576, "target": 34962 },
		{ "buffer": 0, "byteLength": 72, "byteOffset": 768, "target": 34963 },
		{ "buffer": 0, "byteLength": 45576, "byteOffset": 840 },
		{ "buffer": 0, "byteLength": 60575, "byteOffset": 46416 },
		{ "buffer": 0, "byteLength": 44017, "byteOffset": 106992 },
		{ "buffer": 0, "byteLength": 23808, "byteOffset": 151012, "target": 34962 },
		{ "buffer": 0, "byteLength": 23808, "byteOffset": 174820, "target": 34962 },
		{ "buffer": 0, "byteLength": 15872, "byteOffset": 198628, "target": 34962 },
		{ "buffer": 0, "byteLength": 5760, "byteOffset": 214500, "target": 34963 },
		{ "buffer": 0, "byteOffset": 220260, "byteLength": 725336 }
	],
	"samplers": [{ "magFilter": 9729, "minFilter": 9987 }],
	"buffers": [
		{
			"byteLength": 945596,
			"uri": "data:application/octet-stream;base64,"
		}
	]
}
